<svg width="960" height="912" viewBox="0 0 960 912" fill="none" xmlns="http://www.w3.org/2000/svg">
<path d="M787.294 906.141L832.193 861.235C835.944 857.484 841.032 855.376 846.336 855.376H940C951.046 855.376 960 846.422 960 835.376V67C960 55.9543 951.046 47 940 47H674.5C669.198 47 664.113 44.8949 660.363 41.1472L624.729 5.85284C620.978 2.10519 615.894 0 610.592 0H20.0001C8.95435 0 0 8.95431 0 20V892C0 903.046 8.95435 912 20 912H773.151C778.456 912 783.543 909.892 787.294 906.141Z" fill="#FF7939"/>
</svg>
